<mxfile host="app.diagrams.net" modified="2023-12-17T10:57:14.900Z" agent="Mozilla/5.0 (X11; Linux x86_64) AppleWebKit/537.36 (KHTML, like Gecko) Chrome/119.0.0.0 Safari/537.36 OPR/105.0.0.0" version="22.1.11" etag="3iinDb9lx2ov23B9OUGz" type="github">
  <diagram name="Page-1" id="7nTXU-AhWiNXk7qyJr4Z">
    <mxGraphModel>
      <root>
        <mxCell id="0" />
        <mxCell id="1" parent="0" />
      </root>
    </mxGraphModel>
  </diagram>
</mxfile>
